<svg width="120" height="44" viewBox="0 0 120 44" fill="none" xmlns="http://www.w3.org/2000/svg">
<path d="M0.64 34L7.904 10.96H13.552L20.816 34H16.848L10.256 13.328H11.12L4.608 34H0.64ZM4.688 29.008V25.408H16.784V29.008H4.688ZM30.3808 34.48C28.2474 34.48 26.5141 34 25.1808 33.04C23.8474 32.08 23.0368 30.7307 22.7488 28.992L26.6848 28.384C26.8874 29.2373 27.3354 29.9093 28.0288 30.4C28.7221 30.8907 29.5968 31.136 30.6528 31.136C31.5808 31.136 32.2954 30.9547 32.7968 30.592C33.3088 30.2187 33.5648 29.712 33.5648 29.072C33.5648 28.6773 33.4688 28.3627 33.2768 28.128C33.0954 27.8827 32.6901 27.648 32.0608 27.424C31.4314 27.2 30.4661 26.9173 29.1648 26.576C27.7141 26.192 26.5621 25.7813 25.7088 25.344C24.8554 24.896 24.2421 24.368 23.8688 23.76C23.4954 23.152 23.3088 22.416 23.3088 21.552C23.3088 20.4747 23.5914 19.536 24.1568 18.736C24.7221 17.936 25.5114 17.3227 26.5248 16.896C27.5381 16.4587 28.7328 16.24 30.1088 16.24C31.4528 16.24 32.6421 16.448 33.6768 16.864C34.7221 17.28 35.5648 17.872 36.2048 18.64C36.8448 19.408 37.2394 20.3093 37.3888 21.344L33.4528 22.048C33.3568 21.312 33.0208 20.7307 32.4448 20.304C31.8794 19.8773 31.1221 19.6373 30.1728 19.584C29.2661 19.5307 28.5354 19.6693 27.9808 20C27.4261 20.32 27.1488 20.7733 27.1488 21.36C27.1488 21.6907 27.2608 21.9733 27.4848 22.208C27.7088 22.4427 28.1568 22.6773 28.8288 22.912C29.5114 23.1467 30.5248 23.4347 31.8688 23.776C33.2448 24.128 34.3434 24.5333 35.1648 24.992C35.9968 25.44 36.5941 25.9787 36.9568 26.608C37.3301 27.2373 37.5168 28 37.5168 28.896C37.5168 30.6347 36.8821 32 35.6128 32.992C34.3541 33.984 32.6101 34.48 30.3808 34.48ZM47.6933 34.48C45.5599 34.48 43.8266 34 42.4933 33.04C41.1599 32.08 40.3493 30.7307 40.0613 28.992L43.9973 28.384C44.1999 29.2373 44.6479 29.9093 45.3413 30.4C46.0346 30.8907 46.9093 31.136 47.9653 31.136C48.8933 31.136 49.6079 30.9547 50.1093 30.592C50.6213 30.2187 50.8773 29.712 50.8773 29.072C50.8773 28.6773 50.7813 28.3627 50.5893 28.128C50.4079 27.8827 50.0026 27.648 49.3733 27.424C48.7439 27.2 47.7786 26.9173 46.4773 26.576C45.0266 26.192 43.8746 25.7813 43.0213 25.344C42.1679 24.896 41.5546 24.368 41.1813 23.76C40.8079 23.152 40.6213 22.416 40.6213 21.552C40.6213 20.4747 40.9039 19.536 41.4693 18.736C42.0346 17.936 42.8239 17.3227 43.8373 16.896C44.8506 16.4587 46.0453 16.24 47.4213 16.24C48.7653 16.24 49.9546 16.448 50.9893 16.864C52.0346 17.28 52.8773 17.872 53.5173 18.64C54.1573 19.408 54.5519 20.3093 54.7013 21.344L50.7653 22.048C50.6693 21.312 50.3333 20.7307 49.7573 20.304C49.1919 19.8773 48.4346 19.6373 47.4853 19.584C46.5786 19.5307 45.8479 19.6693 45.2933 20C44.7386 20.32 44.4613 20.7733 44.4613 21.36C44.4613 21.6907 44.5733 21.9733 44.7973 22.208C45.0213 22.4427 45.4693 22.6773 46.1413 22.912C46.8239 23.1467 47.8373 23.4347 49.1813 23.776C50.5573 24.128 51.6559 24.5333 52.4773 24.992C53.3093 25.44 53.9066 25.9787 54.2693 26.608C54.6426 27.2373 54.8293 28 54.8293 28.896C54.8293 30.6347 54.1946 32 52.9253 32.992C51.6666 33.984 49.9226 34.48 47.6933 34.48ZM66.1898 34.48C64.4404 34.48 62.9044 34.1013 61.5818 33.344C60.2591 32.5867 59.2244 31.536 58.4778 30.192C57.7418 28.848 57.3738 27.3013 57.3738 25.552C57.3738 23.664 57.7364 22.0267 58.4618 20.64C59.1871 19.2427 60.1951 18.16 61.4858 17.392C62.7764 16.624 64.2698 16.24 65.9658 16.24C67.7578 16.24 69.2778 16.6613 70.5258 17.504C71.7844 18.336 72.7178 19.5147 73.3258 21.04C73.9338 22.5653 74.1631 24.3627 74.0138 26.432H70.1898V25.024C70.1791 23.1467 69.8484 21.776 69.1978 20.912C68.5471 20.048 67.5231 19.616 66.1258 19.616C64.5471 19.616 63.3738 20.1067 62.6058 21.088C61.8378 22.0587 61.4538 23.4827 61.4538 25.36C61.4538 27.1093 61.8378 28.464 62.6058 29.424C63.3738 30.384 64.4938 30.864 65.9658 30.864C66.9151 30.864 67.7311 30.656 68.4138 30.24C69.1071 29.8133 69.6404 29.2 70.0138 28.4L73.8218 29.552C73.1604 31.1093 72.1364 32.32 70.7498 33.184C69.3738 34.048 67.8538 34.48 66.1898 34.48ZM60.2378 26.432V23.52H72.1258V26.432H60.2378ZM87.7118 34C86.5704 34.2133 85.4504 34.304 84.3518 34.272C83.2638 34.2507 82.2878 34.0533 81.4238 33.68C80.5598 33.296 79.9038 32.6933 79.4557 31.872C79.0611 31.1253 78.8531 30.3627 78.8318 29.584C78.8104 28.8053 78.7998 27.9253 78.7998 26.944V11.92H82.6398V26.72C82.6398 27.4133 82.6451 28.0213 82.6558 28.544C82.6771 29.0667 82.7891 29.4933 82.9918 29.824C83.3758 30.464 83.9891 30.8213 84.8318 30.896C85.6744 30.9707 86.6344 30.928 87.7118 30.768V34ZM75.6638 19.744V16.72H87.7118V19.744H75.6638ZM91.4275 34V16.72H94.8355V20.928L94.4195 20.384C94.6328 19.808 94.9155 19.2853 95.2675 18.816C95.6302 18.336 96.0622 17.9413 96.5635 17.632C96.9902 17.344 97.4595 17.12 97.9715 16.96C98.4942 16.7893 99.0275 16.688 99.5715 16.656C100.116 16.6133 100.644 16.6347 101.156 16.72V20.32C100.644 20.1707 100.052 20.1227 99.3795 20.176C98.7182 20.2293 98.1208 20.416 97.5875 20.736C97.0542 21.024 96.6168 21.392 96.2755 21.84C95.9448 22.288 95.6995 22.8 95.5395 23.376C95.3795 23.9413 95.2995 24.5547 95.2995 25.216V34H91.4275ZM108.635 34.48C107.387 34.48 106.331 34.2453 105.467 33.776C104.603 33.296 103.947 32.6613 103.499 31.872C103.061 31.0827 102.843 30.2133 102.843 29.264C102.843 28.432 102.981 27.6853 103.259 27.024C103.536 26.352 103.963 25.776 104.539 25.296C105.115 24.8053 105.861 24.4053 106.779 24.096C107.472 23.872 108.283 23.6693 109.211 23.488C110.149 23.3067 111.163 23.1413 112.251 22.992C113.349 22.832 114.496 22.6613 115.691 22.48L114.315 23.264C114.325 22.0693 114.059 21.1893 113.515 20.624C112.971 20.0587 112.053 19.776 110.763 19.776C109.984 19.776 109.232 19.9573 108.507 20.32C107.781 20.6827 107.275 21.3067 106.987 22.192L103.467 21.088C103.893 19.6267 104.704 18.4533 105.899 17.568C107.104 16.6827 108.725 16.24 110.763 16.24C112.299 16.24 113.648 16.4907 114.811 16.992C115.984 17.4933 116.853 18.3147 117.419 19.456C117.728 20.064 117.915 20.688 117.979 21.328C118.043 21.9573 118.075 22.6453 118.075 23.392V34H114.699V30.256L115.259 30.864C114.48 32.112 113.568 33.0293 112.523 33.616C111.488 34.192 110.192 34.48 108.635 34.48ZM109.403 31.408C110.277 31.408 111.024 31.2533 111.643 30.944C112.261 30.6347 112.752 30.256 113.115 29.808C113.488 29.36 113.739 28.9387 113.867 28.544C114.069 28.0533 114.181 27.4933 114.203 26.864C114.235 26.224 114.251 25.7067 114.251 25.312L115.435 25.664C114.272 25.8453 113.275 26.0053 112.443 26.144C111.611 26.2827 110.896 26.416 110.299 26.544C109.701 26.6613 109.173 26.7947 108.715 26.944C108.267 27.104 107.888 27.2907 107.579 27.504C107.269 27.7173 107.029 27.9627 106.859 28.24C106.699 28.5173 106.619 28.8427 106.619 29.216C106.619 29.6427 106.725 30.0213 106.939 30.352C107.152 30.672 107.461 30.928 107.867 31.12C108.283 31.312 108.795 31.408 109.403 31.408Z" fill="#169AC8"/>
</svg>
