<svg width="49" height="48" viewBox="0 0 49 48" fill="none" xmlns="http://www.w3.org/2000/svg">
<path d="M20.8993 45H28.0989C34.8868 45 38.2808 45 40.3895 42.5397C42.4982 40.0794 42.4982 36.1196 42.4982 28.2V27.2821C42.4982 23.5974 42.4982 21.7551 41.8755 20.1236C41.2527 18.4921 40.079 17.2597 37.7316 14.7947L30.6061 7.31266C28.5761 5.181 27.561 4.11518 26.3156 3.55759C25.0702 3 23.6978 3 20.9529 3C14.1293 3 10.7175 3 8.60873 5.4603C6.5 7.92061 6.5 11.8804 6.5 19.8V28.2C6.5 36.1196 6.5 40.0794 8.60873 42.5397C10.7175 45 14.1114 45 20.8993 45Z" fill="#F3F4F6"/>
<path d="M30.6061 7.31266L30.244 7.65748L30.6061 7.31266ZM37.7316 14.7947L37.3695 15.1396L37.7316 14.7947ZM41.8755 20.1236L41.4083 20.3019V20.3019L41.8755 20.1236ZM8.60873 42.5397L8.98836 42.2143H8.98836L8.60873 42.5397ZM40.3895 42.5397L40.0099 42.2143L40.3895 42.5397ZM28.0989 44.5H20.8993V45.5H28.0989V44.5ZM7 28.2V19.8H6V28.2H7ZM41.9982 27.2821V28.2H42.9982V27.2821H41.9982ZM30.244 7.65748L37.3695 15.1396L38.0936 14.4499L30.9682 6.96784L30.244 7.65748ZM42.9982 27.2821C42.9982 23.6366 43.006 21.6833 42.3426 19.9453L41.4083 20.3019C41.9905 21.8269 41.9982 23.5582 41.9982 27.2821H42.9982ZM37.3695 15.1396C39.7429 17.6317 40.8294 18.7852 41.4083 20.3019L42.3426 19.9453C41.676 18.199 40.4151 16.8876 38.0936 14.4499L37.3695 15.1396ZM20.9529 3.5C23.7404 3.5 24.9857 3.51 26.1113 4.01394L26.5199 3.10124C25.1547 2.49 23.6552 2.5 20.9529 2.5V3.5ZM30.9682 6.96784C28.9682 4.86772 27.8768 3.70872 26.5199 3.10124L26.1113 4.01394C27.2453 4.52163 28.184 5.49429 30.244 7.65748L30.9682 6.96784ZM20.8993 44.5C17.4889 44.5 14.9897 44.4986 13.0768 44.1985C11.1872 43.9021 9.93928 43.3238 8.98836 42.2143L8.22909 42.8651C9.3869 44.2159 10.8903 44.8678 12.9218 45.1864C14.9301 45.5014 17.5218 45.5 20.8993 45.5V44.5ZM6 28.2C6 32.1476 5.99922 35.1516 6.26688 37.4743C6.5354 39.8046 7.08081 41.5254 8.22909 42.8651L8.98836 42.2143C8.02791 41.0937 7.51896 39.6045 7.2603 37.3598C7.00078 35.1077 7 32.172 7 28.2H6ZM28.0989 45.5C31.4765 45.5 34.0682 45.5014 36.0764 45.1864C38.1079 44.8678 39.6113 44.2159 40.7691 42.8651L40.0099 42.2143C39.059 43.3238 37.8111 43.9021 35.9214 44.1985C34.0085 44.4986 31.5093 44.5 28.0989 44.5V45.5ZM41.9982 28.2C41.9982 32.172 41.9975 35.1077 41.7379 37.3598C41.4793 39.6045 40.9703 41.0937 40.0099 42.2143L40.7691 42.8651C41.9174 41.5254 42.4628 39.8046 42.7314 37.4743C42.999 35.1516 42.9982 32.1476 42.9982 28.2H41.9982ZM7 19.8C7 15.828 7.00078 12.8923 7.2603 10.6402C7.51896 8.39553 8.02791 6.90627 8.98836 5.78569L8.22909 5.13492C7.08081 6.47464 6.5354 8.19543 6.26688 10.5257C5.99922 12.8484 6 15.8524 6 19.8H7ZM20.9529 2.5C17.5575 2.5 14.9525 2.49858 12.9356 2.81352C10.8957 3.13205 9.38732 3.78359 8.22909 5.13492L8.98836 5.78569C9.93887 4.67671 11.1907 4.0981 13.0899 3.80155C15.0119 3.50142 17.5247 3.5 20.9529 3.5V2.5Z" fill="#DADEE4"/>
<path d="M26.3008 4.04688V9.29687C26.3008 14.2466 26.3008 16.7215 27.6187 18.2592C28.9367 19.7969 31.0579 19.7969 35.3003 19.7969H42.5" stroke="#DADEE4"/>
<rect x="24.5" y="24" width="24" height="24" rx="12" fill="#929292"/>
<path opacity="0.5" d="M30.5 38C30.5 39.8856 30.5 40.8284 31.0858 41.4142C31.6716 42 32.6144 42 34.5 42H38.5C40.3856 42 41.3284 42 41.9142 41.4142C42.5 40.8284 42.5 39.8856 42.5 38" stroke="white" strokeWidth="1.3" strokeLinecap="round" strokeLinejoin="round"/>
<path d="M36.4987 30.0013V38.668M36.4987 38.668L39.1654 35.7513M36.4987 38.668L33.832 35.7513" stroke="white" strokeWidth="1.3" strokeLinecap="round" strokeLinejoin="round"/>
</svg>
